<?xml version="1.0" encoding="utf-8"?>
<!-- Generator: Adobe Illustrator 24.2.3, SVG Export Plug-In . SVG Version: 6.00 Build 0)  -->
<svg version="1.1" id="Layer_1" xmlns="http://www.w3.org/2000/svg" xmlns:xlink="http://www.w3.org/1999/xlink" x="0px" y="0px"
	 viewBox="0 0 600 600" style="enable-background:new 0 0 600 600;" xml:space="preserve">
<style type="text/css">
	.st0{fill:#275963;}
	.st1{fill:#E1B145;}
</style>
<g>
	<g>
		<path class="st0" d="M270.6,369.1v-28.9h10.1c3,6.5,7.4,15.3,8.7,18.8h0.1c-0.3-3-0.4-8.1-0.4-12.7v-6.1h7.7v28.9h-9.6
			c-2.4-5.2-7.7-16.1-9-19.9H278c0.3,2.7,0.3,8.3,0.3,13.4v6.5H270.6z"/>
		<path class="st0" d="M309.4,359.7c0,2.2,0.8,4.4,3.3,4.4c1.9,0,2.5-0.8,2.9-2h8c-0.8,2.9-3.3,7.4-11.1,7.4
			c-8.3,0-11.4-5.6-11.4-11.3c0-6.6,3.5-11.7,11.5-11.7c8.5,0,11.1,5.8,11.1,11.3c0,0.7,0,1.3-0.1,1.9H309.4z M315.6,355.4
			c0-2.1-0.6-3.8-3-3.8c-2.2,0-3,1.6-3.2,3.8H315.6z"/>
		<path class="st0" d="M334,347.1c1.4,8.1,2.1,12.6,2.4,15.3h0.1c0.5-3,0.9-6.5,2.7-15.3h7.6c1.6,8.6,2.2,12.4,2.5,15.3h0.1
			c0.3-2.3,0.9-6.7,2.6-15.3h8l-6.3,22h-8.8c-1.2-6.6-1.9-10.4-2.3-13.6h-0.1c-0.3,2.8-1.1,7.2-2.5,13.6h-8.8l-6.1-22H334z"/>
		<path class="st0" d="M398.9,359.6c-1.1,6-5.5,10-13.4,10c-9.5,0-14-6.4-14-14.8c0-8.2,4.5-15.2,14.4-15.2c8.5,0,12.4,4.9,12.9,9.9
			h-8.4c-0.4-2.1-1.6-4-4.7-4c-4.1,0-5.5,3.9-5.5,8.9c0,4.6,1.2,9.1,5.6,9.1c3.4,0,4.3-2.4,4.7-4.1H398.9z"/>
		<path class="st0" d="M425.1,358c0,6.9-4.3,11.5-11.8,11.5c-7.8,0-11.7-5.1-11.7-11.5c0-6.6,4-11.6,11.9-11.6
			C420.8,346.5,425.1,351.4,425.1,358z M410,358.1c0,4.2,1.2,6,3.4,6c2.2,0,3.3-1.9,3.3-6c0-4.5-1.1-6.1-3.4-6.1
			C411.3,352.1,410,353.5,410,358.1z"/>
		<path class="st0" d="M428.7,338.7h8.2v5.7h-8.2V338.7z M428.7,347.1h8.2v22h-8.2V347.1z"/>
		<path class="st0" d="M441.6,352.8c0-1.9,0-4-0.1-5.7h8c0.1,0.6,0.2,1.8,0.3,2.4c0.8-1.3,2.7-3,6.3-3c4.4,0,7.2,3,7.2,8.4v14.2H455
			v-13.2c0-2.1-0.6-3.3-2.5-3.3c-1.7,0-2.8,0.9-2.8,4v12.5h-8.2V352.8z"/>
	</g>
	<g>
		<path class="st1" d="M134.2,360.3c0.5,2.5,2.2,3.6,5,3.6c2.6,0,3.7-0.9,3.7-2.6c0-1.9-1.3-2.6-5.8-3.7c-8.5-2.1-10.2-5.2-10.2-9.1
			c0-4.8,3.6-8.9,11.6-8.9c8.4,0,11.8,4.2,12.2,8.8h-8.2c-0.2-1.5-1-3.1-4-3.1c-1.9,0-3.1,0.7-3.1,2.3c0,1.6,1.1,2.2,5.5,3.3
			c8.9,2.2,10.7,5.4,10.7,9.5c0,5.4-4.2,9.2-12.7,9.2c-8,0-12.2-3.7-12.9-9.3H134.2z"/>
		<path class="st1" d="M161.6,347.1c1.4,5.6,3,12.6,3.3,14.9h0.1c0.4-2.9,1.4-7.6,3.2-14.9h8.1l-6.5,20.7c-2.2,7.1-4,9.8-10.9,9.8
			c-0.5,0-2.2-0.1-3.4-0.2v-5.9c0.3,0,1,0.1,1.5,0.1c1.9,0,2.9-0.5,3.5-2.2l-7.8-22.3H161.6z"/>
		<path class="st1" d="M178.7,353.4c0-2.1,0-4.4-0.1-6.3h8c0.1,0.7,0.2,2.6,0.2,3.6c0.8-2.1,3-4.1,6.8-4.1v7.5
			c-4.6-0.2-6.7,0.9-6.7,6v9h-8.2V353.4z"/>
		<path class="st1" d="M196.7,338.7h8.2v5.7h-8.2V338.7z M196.7,347.1h8.2v22h-8.2V347.1z"/>
		<path class="st1" d="M229.8,362.5c0,2.5,0.1,5.8,0.3,6.5h-7.5c-0.2-0.4-0.3-1.5-0.3-2c-1,1.4-2.7,2.6-6.2,2.6
			c-4.9,0-7.6-3.1-7.6-7c0-5.2,4.1-7.4,10.9-7.4c0.7,0,2,0,2.7,0V354c0-1.4-0.5-2.4-2.5-2.4c-1.8,0-2.3,0.8-2.5,2.3h-7.5
			c0.3-3.7,2.5-7.3,10.3-7.2c7.2,0,10.1,2.8,10.1,8.1V362.5z M222,359.3c-0.4,0-1.2,0-1.8,0c-2.8,0-3.7,1-3.7,2.6
			c0,1.3,0.8,2.3,2.4,2.3c2.8,0,3.2-1.9,3.2-4.3V359.3z"/>
		<path class="st1" d="M234.6,352.8c0-1.9,0-4-0.1-5.7h8c0.1,0.6,0.2,1.8,0.3,2.4c0.8-1.3,2.7-3,6.3-3c4.4,0,7.2,3,7.2,8.4v14.2H248
			v-13.2c0-2.1-0.6-3.3-2.5-3.3c-1.7,0-2.8,0.9-2.8,4v12.5h-8.2V352.8z"/>
	</g>
	<g>
		<g>
			<path class="st1" d="M378.4,220l-2,22l-2,22l-2,22l-2,22l-2,22h13.5l0-0.1c1-5.3,4.4-10.3,7.5-13.8c-1.4,1.3-3,2.9-4.6,4.7
				l-3.1,3.5l1.6-4.1c1-2.4,2.3-4.6,4-6.6c-0.4,0.3-0.7,0.5-1,0.6l-2.5,1.6l0.9-2.3c0.6-1.6,2-3.2,4.1-5l-1.7,0.8l1.4-2.4
				c0.2-0.3,0.5-0.6,0.7-0.9c0.2-0.2,0.5-0.5,0.7-0.7l-1.7,0.8l2.1-2.7c0.6-0.7,1.6-1.5,2.8-2.3v-0.1l-2.9,1.4l2.6-3
				c0.1-0.2,0.3-0.3,0.5-0.5l3.2-35l2-22h44.2l-2,22h22.1l2-22l2-22H378.4z M390,330h2.5l3-5.5C393.9,325.6,391.9,327.6,390,330z
				 M383.8,330h1.9c1.1-2.5,2.6-4.9,4-6.9C387.8,325.1,385.7,327.6,383.8,330z"/>
		</g>
		<polygon class="st0" points="155.4,242 153.4,264 219.7,264 217.7,286 215.7,308 213.7,330 125.3,330 127.3,308 193.6,308 
			195.6,286 129.3,286 131.3,264 133.3,242 135.4,220 223.7,220 221.7,242 		"/>
		<polygon class="st0" points="362.5,255.4 342.1,220 321.6,255.4 331,255.4 330.2,264 326.2,308 304.1,308 308.1,264 310.1,242 
			312.1,220 245.8,220 243.8,242 241.8,264 239.8,286 239,295 229.5,295 250,330.5 270.5,295 261.1,295 261.9,286 263.9,264 
			265.9,242 288,242 286,264 284,286 282,308 280,330 346.3,330 348.3,308 350.3,286 352.3,264 353.1,255.4 		"/>
		<g>
			<path class="st0" d="M427.1,290.7c0,0,2.2,3.3,5,0.3c0,0,0,2.3-3.4,2.5C428.7,293.5,426.3,293,427.1,290.7z"/>
			<path class="st0" d="M437.5,297.4c0,0,29.6-22.4,37.6-8.7c0,0-1.7-23.6-27.4-7.2l-0.8,0.6c0,0-0.6-2.5-1.7-2.7
				c0,0,0.4,1.1,0.4,1.5c0,0-1.2-2.4-2.6-2.5c0,0,0.8,1.1,0.7,1.5c0,0-1.9-2.1-3.2-2.1c0,0,0.6,0.6,0.9,1.2c0,0-2.5-1.8-4.3-1.5
				c0,0,1.7,0.7,1.8,1.1c0,0-4.4-1.4-6.5-1.3c0,0,4.4,0.9,5.1,1.7c-0.6-0.2-7-2.1-12.5-0.3c0,0,5.2,0.2,6.4,1.2
				c0,0-8.2-0.6-10.8,0.3c0,0,4.5,0,6,1c0,0-6.2-0.6-8.9,0.3c0,0,3.4-0.1,4.5,0.5c0,0-8.8-0.1-13.8,3.7c0,0,4.4-0.8,6.4,0
				c0,0-8.9,1-11.4,3.5c0.3-0.1,3.3-0.8,5.4-0.6c0,0-8.4,2.2-8.7,4.4c0,0,3.8-1.6,6.3-1.5c0,0-7.7,2.7-9.8,5
				c0.3-0.2,5.9-2.8,8.4-2.4c0,0-8.9,3.7-10.8,6.1c0.4-0.2,6.6-3.2,9.2-3.4c0,0-7.5,2.9-10.3,6c-0.2,0.2-0.4,0.5-0.5,0.7
				c0.1,0,0.2-0.1,0.5-0.3c1.7-0.9,7-3.6,9.1-3.7c0,0-5.3,2.3-9.2,5.4c-1.8,1.4-3.4,3-4,4.6c0.2-0.1,1.8-1.2,3.8-2.5
				c2.4-1.5,5.3-3.3,6.5-3.6c-0.5,0.3-3.4,1.7-6.3,4.5c-2,1.9-4,4.6-5.4,8c0.3-0.4,5.1-5.9,9-8c0.6-0.3,1.1-0.5,1.6-0.6
				c0,0-0.3,0.2-0.7,0.6c-2.3,2.1-9.7,9.2-11.2,17.1c0.5-0.6,8-10.4,11.5-11.2c0,0-8.2,8.4-9.3,16.1c0,0.1,0,0.2,0,0.2
				c0,0,0.1-0.1,0.2-0.2c1.1-1.7,7.8-11.4,11.6-11.8l-6.4,11.8l-0.1,0.2H455c0,0,0-0.1,0-0.2c0.1-1,0.6-6.2,2.7-10.4
				c1.2-2.5,3-4.6,5.6-5.2c0,0,9.6,1.1,8-2.7c0,0-2.4-6.2-32.8-7.1C438.4,304.7,429,303.3,437.5,297.4z M415.7,302.8
				c-0.8,1.2-1.7,2.9-2.5,5.2c-0.5,1.3-0.9,2.8-1.2,4.6c2.2-1.1,5.7-2.9,8.2-4.6c1.3-0.9,2.3-1.7,2.8-2.4c0,0-0.2,1-0.4,2.4
				c0,0.2-0.1,0.3-0.1,0.5c-0.3,1.7-0.6,4.1-0.9,6.4c1.9-0.1,6.2-1.3,7.8-2.8c-2.4,2.5-7.8,4.2-8.5,4.2h-0.1l-0.7,0l0-0.7
				c0.2-2.7,0.9-5.1,1.6-7c-3.7,2.8-9.9,5.6-10.2,5.7l-1.2,0.5l0.2-1.2c0.4-2.2,0.9-4.1,1.5-5.6c2.3-6,5.6-7.5,6.1-7.7
				C417.7,300.4,416.8,301.2,415.7,302.8z M415.5,326.1l-1,0.7l0-1.3c-0.4-11,4.3-14.2,4.8-14.6c-0.3,0.3-3.5,4-3.5,13.2v0.1
				c3-2.3,8.4-6.7,9.3-9c0,0,0,0,0,0.1c0,0.7,0.1,5.1,0.5,9.4c1.8-0.5,5.7-2.4,7-4.2c-1.9,2.9-6.7,5.6-7.5,5.7c0,0,0,0-0.1,0
				l-0.7,0.1l-0.1-0.7c-0.3-2.7-0.1-5.2,0.1-7.1C421.3,321.9,415.8,325.9,415.5,326.1z M450.6,308c1.5-0.2,3.1-0.1,4.6,0
				c1.2,0.1,2.4,0.3,3.6,0.6c6,1.4,10.6,4.3,10.6,4.3c-5.8-0.9-6.7-0.3-11.1,0.6c-0.1,0-0.2,0-0.3,0.1c-4.6,1-12-0.1-12-0.1
				c3.3-0.1,5.2-1.6,5.2-1.6c-8.7,1.2-11.3-0.8-11.3-0.8c4.4,1.2,6.9-0.8,6.9-0.8c-6.4,0.5-9.5-2.2-9.5-2.2s3.7,0.9,13,0
				C450.5,308,450.5,308,450.6,308z M434.4,307c-0.2,0.1-0.5,0.4-1.1,1c-0.4,0.4-0.8,0.9-1.2,1.5c-1.3,1.9-2.8,5-3.7,9.7
				c3.4-1.6,9.6-4.9,10.9-7c0,0-0.2,1.2-0.5,3c-0.3,1.7-0.6,4.1-0.9,6.4c1.8-0.1,6.1-1.3,7.7-2.8c-2.4,2.5-7.7,4.1-8.4,4.1h-0.1
				l-0.7,0l0-0.7c0.2-2.7,0.9-5.1,1.6-7c-3.7,2.8-9.9,5.6-10.2,5.7l-1.2,0.5l0.2-1.2c1.3-7.4,4.1-10.8,6-12.3
				C433.7,307.3,434.3,307,434.4,307z M423.6,297.6c-7.3-1.9-15.3,1.1-15.7,1.2c2.5-3.8,13.7-6.2,13.7-6.2c-3-0.5-9.2,1.2-9.2,1.2
				c3.7-3.5,14.1-4.7,14.1-4.7c-1.8-0.5-8,0.4-8,0.4c2-2.5,13.7-3.8,13.7-3.8c-1.3-0.9-6.1-0.3-6.1-0.3c5.5-3,12.6-1.8,12.6-1.8
				c-0.7-1.9-3.7-2.3-3.7-2.3c5.9-1,8.9,2.5,8.9,2.5c-0.1,2.2-6,3.4-6,3.4c3.2,0.7,6.3-1.3,6.3-1.3c-0.5,2.8-10.2,6-10.2,6
				c2.3,0.3,5.4-0.5,5.4-0.5c-3.2,4.5-16.7,4.1-16.7,4.1c1.1,1.5,12.5,1.1,12.5,1.1S431,299.7,423.6,297.6z"/>
		</g>
	</g>
</g>
</svg>
