<svg width="46" height="46" viewBox="0 0 46 46" fill="none" xmlns="http://www.w3.org/2000/svg">
<path fill-rule="evenodd" clip-rule="evenodd" d="M37.375 25.5875C37.6625 27.3125 37.95 28.75 38.525 30.475L40.25 35.3625L38.8125 37.375H28.75C28.75 38.8125 28.175 40.25 27.025 41.4C25.875 42.55 24.4375 43.125 23 43.125C21.5625 43.125 19.8375 42.55 18.975 41.4C17.825 40.25 17.25 38.8125 17.25 37.375H7.1875L5.75 35.3625L7.475 30.475C8.05 28.175 8.625 25.875 8.625 23.575V17.25C8.625 15.2375 8.9125 13.225 9.775 11.5C10.6375 9.4875 11.7875 8.05 13.225 6.6125C14.6625 5.175 16.3875 4.3125 18.4 3.7375C19.8375 3.1625 21.5625 2.875 23 2.875C22.425 3.7375 21.85 4.8875 21.275 6.0375C20.7 6.0375 20.125 6.0375 19.2625 6.6125C17.825 6.9 16.3875 7.7625 15.2375 8.9125C14.0875 9.775 12.9375 11.2125 12.3625 12.65C11.7875 14.0875 11.5 15.525 11.5 17.25V23.575C11.5 26.1625 10.925 28.75 10.35 31.3375L9.2 34.5H36.8L35.65 31.3375C35.1469 29.8252 34.8622 28.0887 34.6064 26.5247L34.5 25.875C35.65 25.875 36.5125 25.875 37.375 25.5875ZM23 40.25C23.575 40.25 24.4375 39.9625 25.0125 39.3875C25.5875 38.8125 25.875 38.2375 25.875 37.375H20.125C20.125 38.2375 20.4125 38.8125 20.9875 39.3875C21.5625 39.9625 22.425 40.25 23 40.25ZM43.125 11.5C43.125 13.7875 42.2163 15.9813 40.5988 17.5988C38.9813 19.2163 36.7875 20.125 34.5 20.125C32.2125 20.125 30.0187 19.2163 28.4012 17.5988C26.7837 15.9813 25.875 13.7875 25.875 11.5C25.875 9.21251 26.7837 7.0187 28.4012 5.4012C30.0187 3.7837 32.2125 2.875 34.5 2.875C36.7875 2.875 38.9813 3.7837 40.5988 5.4012C42.2163 7.0187 43.125 9.21251 43.125 11.5Z" fill="#1D1D1D"/>
<circle cx="34.5" cy="11.5" r="8.5" fill="#E8161C"/>
</svg>
