<?xml version="1.0" encoding="utf-8"?>
<!-- Generator: Adobe Illustrator 24.2.3, SVG Export Plug-In . SVG Version: 6.00 Build 0)  -->
<svg version="1.0" id="Layer_1" xmlns="http://www.w3.org/2000/svg" xmlns:xlink="http://www.w3.org/1999/xlink" x="0px" y="0px"
	 viewBox="0 0 488.2 225.9" enable-background="new 0 0 488.2 225.9" xml:space="preserve">
<g>
	<g>
		<path fill="#275963" d="M203.8,211.8v-39.9h14c4.2,9,10.3,21.1,12,26.1h0.2c-0.4-4.1-0.5-11.2-0.5-17.6v-8.5H240v39.9h-13.3
			c-3.4-7.2-10.6-22.2-12.5-27.5h-0.2c0.4,3.8,0.4,11.5,0.4,18.5v9H203.8z"/>
		<path fill="#275963" d="M257.4,198.8c0,3.1,1.2,6.1,4.5,6.1c2.7,0,3.4-1.1,4-2.7H277c-1.1,4-4.6,10.3-15.3,10.3
			c-11.5,0-15.7-7.7-15.7-15.7c0-9.2,4.8-16.2,15.9-16.2c11.8,0,15.4,8,15.4,15.6c0,1,0,1.8-0.1,2.6H257.4z M265.9,192.9
			c0-2.8-0.9-5.2-4.1-5.2c-3,0-4.2,2.2-4.4,5.2H265.9z"/>
		<path fill="#275963" d="M291.4,181.4c1.9,11.3,2.9,17.4,3.4,21.2h0.2c0.6-4.1,1.3-9,3.8-21.2h10.5c2.3,12,3.1,17.2,3.5,21.2h0.2
			c0.5-3.2,1.3-9.2,3.6-21.2h11.1l-8.7,30.4h-12.2c-1.7-9.2-2.6-14.4-3.2-18.8h-0.2c-0.4,3.8-1.5,9.9-3.4,18.8h-12.2l-8.4-30.4
			H291.4z"/>
		<path fill="#275963" d="M381.2,198.6c-1.5,8.3-7.6,13.9-18.5,13.9c-13.1,0-19.4-8.8-19.4-20.4c0-11.3,6.2-21,20-21
			c11.7,0,17.1,6.8,17.9,13.7h-11.6c-0.5-2.9-2.2-5.5-6.5-5.5c-5.7,0-7.6,5.4-7.6,12.4c0,6.3,1.6,12.6,7.8,12.6c4.7,0,6-3.4,6.5-5.6
			H381.2z"/>
		<path fill="#275963" d="M417.3,196.5c0,9.5-5.9,16-16.3,16c-10.8,0-16.1-7.1-16.1-15.9c0-9.2,5.6-16,16.5-16
			C411.4,180.6,417.3,187.3,417.3,196.5z M396.4,196.6c0,5.8,1.7,8.3,4.7,8.3c3,0,4.6-2.6,4.6-8.2c0-6.3-1.6-8.4-4.6-8.4
			C398.3,188.3,396.4,190.3,396.4,196.6z"/>
		<path fill="#275963" d="M422.3,169.8h11.3v7.9h-11.3V169.8z M422.3,181.4h11.3v30.4h-11.3V181.4z"/>
		<path fill="#275963" d="M440.1,189.3c0-2.6,0-5.5-0.1-7.9h11c0.2,0.8,0.3,2.4,0.3,3.3c1.2-1.7,3.7-4.1,8.6-4.1
			c6.1,0,9.9,4.1,9.9,11.5v19.6h-11.3v-18.3c0-2.9-0.8-4.6-3.4-4.6c-2.4,0-3.8,1.2-3.8,5.5v17.3h-11.3V189.3z"/>
	</g>
	<g>
		<path fill="#E1B145" d="M15.2,199.7c0.7,3.5,3.1,4.9,6.9,4.9c3.5,0,5.2-1.2,5.2-3.6c0-2.6-1.8-3.6-8.1-5.1
			c-11.8-2.9-14.1-7.2-14.1-12.5c0-6.7,4.9-12.3,16-12.3c11.6,0,16.3,5.9,16.8,12.2H26.6c-0.3-2.1-1.4-4.3-5.6-4.3
			c-2.7,0-4.3,1-4.3,3.2c0,2.2,1.5,3,7.6,4.5c12.3,3.1,14.7,7.5,14.7,13.2c0,7.5-5.8,12.7-17.5,12.7c-11,0-16.9-5.2-17.8-12.8H15.2z
			"/>
		<path fill="#E1B145" d="M53.1,181.4c2,7.7,4.2,17.4,4.6,20.7H58c0.6-4,1.9-10.5,4.4-20.7h11.1l-9,28.6
			c-3.1,9.8-5.5,13.5-15.1,13.5c-0.7,0-3-0.1-4.7-0.3v-8.1c0.4,0,1.4,0.1,2.1,0.1c2.6,0,4.1-0.7,4.9-3l-10.8-30.8H53.1z"/>
		<path fill="#E1B145" d="M76.7,190.1c0-2.9,0-6-0.1-8.7h11c0.1,0.9,0.3,3.6,0.3,4.9c1.2-2.9,4.1-5.6,9.3-5.7V191
			c-6.4-0.3-9.3,1.2-9.3,8.3v12.5H76.7V190.1z"/>
		<path fill="#E1B145" d="M101.6,169.8h11.3v7.9h-11.3V169.8z M101.6,181.4h11.3v30.4h-11.3V181.4z"/>
		<path fill="#E1B145" d="M147.4,202.8c0,3.4,0.2,8,0.4,9h-10.4c-0.2-0.6-0.4-2.1-0.5-2.8c-1.4,1.9-3.7,3.5-8.6,3.5
			c-6.8,0-10.5-4.3-10.5-9.7c0-7.1,5.7-10.2,15-10.2c1,0,2.8,0,3.7,0v-1.7c0-1.9-0.7-3.4-3.4-3.4c-2.6,0-3.2,1.2-3.5,3.1h-10.4
			c0.4-5.1,3.4-10.1,14.2-10c10,0,14,3.9,14,11.2V202.8z M136.6,198.3c-0.6,0-1.6,0-2.5,0c-3.9,0-5.2,1.4-5.2,3.6
			c0,1.8,1.1,3.2,3.3,3.2c3.8,0,4.4-2.6,4.4-5.9V198.3z"/>
		<path fill="#E1B145" d="M154,189.3c0-2.6,0-5.5-0.1-7.9h11c0.2,0.8,0.3,2.4,0.3,3.3c1.2-1.7,3.7-4.1,8.6-4.1
			c6.1,0,9.9,4.1,9.9,11.5v19.6h-11.3v-18.3c0-2.9-0.8-4.6-3.4-4.6c-2.4,0-3.8,1.2-3.8,5.5v17.3H154V189.3z"/>
	</g>
	<g>
		<g>
			<path fill="#E1B145" d="M352.8,5.7L350,36.1l-2.8,30.4l-2.8,30.4l-2.8,30.4l-2.8,30.4h18.7l0-0.2c1.4-7.3,6.1-14.2,10.3-19.1
				c-2,1.8-4.2,4-6.4,6.5l-4.4,4.8l2.3-5.7c1.3-3.3,3.1-6.4,5.5-9.2c-0.5,0.4-1,0.7-1.3,0.9l-3.5,2.2l1.3-3.2
				c0.8-2.2,2.8-4.5,5.7-6.9l-2.3,1.1l2-3.3c0.3-0.5,0.6-0.9,0.9-1.2c0.3-0.3,0.6-0.7,1-1l-2.3,1.1l2.8-3.7c0.8-1,2.2-2.1,3.9-3.1
				v-0.1l-4,1.9l3.6-4.1c0.2-0.2,0.4-0.4,0.6-0.6l4.4-48.4l2.8-30.4h61.1l-2.8,30.4h30.6l2.8-30.4L475,5.7H352.8z M368.8,157.8h3.5
				l4.1-7.7C374.2,151.7,371.5,154.5,368.8,157.8z M360.2,157.8h2.7c1.5-3.5,3.6-6.8,5.6-9.5C365.8,151,362.9,154.4,360.2,157.8z"/>
		</g>
		<polygon fill="#275963" points="44.6,36.1 41.8,66.6 133.4,66.6 130.6,97 127.9,127.4 125.1,157.8 2.9,157.8 5.7,127.4 
			97.3,127.4 100.1,97 8.5,97 11.2,66.6 14,36.1 16.8,5.7 139,5.7 136.2,36.1 		"/>
		<polygon fill="#275963" points="330.8,54.7 317.8,54.7 316.7,66.6 313.9,97 311.1,127.4 308.4,157.8 216.7,157.8 219.5,127.4 
			222.3,97 225.1,66.6 227.9,36.1 197.3,36.1 194.5,66.6 191.7,97 190.6,109.4 203.6,109.4 175.3,158.4 147,109.4 160,109.4 
			161.2,97 164,66.6 166.7,36.1 169.5,5.7 261.2,5.7 258.4,36.1 255.6,66.6 250.1,127.4 280.6,127.4 286.2,66.6 287.3,54.7 
			274.2,54.7 302.5,5.7 		"/>
		<g>
			<path fill="#275963" d="M420.1,103.5c0,0,3,4.5,6.9,0.4c0,0,0,3.2-4.7,3.5C422.3,107.3,419,106.7,420.1,103.5z"/>
			<path fill="#275963" d="M434.5,112.8c0,0,40.9-31,52-12.1c0,0-2.4-32.6-37.8-9.9l-1.1,0.8c0,0-0.8-3.5-2.3-3.8c0,0,0.5,1.5,0.5,2
				c0,0-1.7-3.3-3.6-3.5c0,0,1.1,1.5,1,2.1c0,0-2.7-2.8-4.5-2.9c0,0,0.9,0.8,1.2,1.6c0,0-3.4-2.5-6-2.1c0,0,2.4,1,2.4,1.6
				c0,0-6.1-2-9-1.7c0,0,6,1.3,7,2.3c-0.8-0.2-9.7-2.9-17.3-0.4c0,0,7.2,0.2,8.8,1.7c0,0-11.3-0.9-14.9,0.5c0,0,6.2,0.1,8.3,1.3
				c0,0-8.6-0.9-12.3,0.4c0,0,4.7-0.1,6.2,0.7c0,0-12.2-0.2-19.1,5.1c0,0,6.1-1.1,8.8,0c0,0-12.4,1.4-15.8,4.9
				c0.5-0.1,4.6-1.1,7.5-0.9c0,0-11.6,3-12,6.1c0,0,5.2-2.2,8.7-2c0,0-10.7,3.7-13.5,6.9c0.5-0.2,8.1-3.9,11.6-3.3
				c0,0-12.3,5.1-14.9,8.4c0.6-0.3,9.1-4.5,12.7-4.7c0,0-10.4,3.9-14.2,8.2c-0.3,0.3-0.6,0.6-0.8,0.9c0.1,0,0.3-0.2,0.7-0.4
				c2.3-1.2,9.7-5,12.5-5.1c0,0-7.3,3.2-12.7,7.5c-2.5,2-4.6,4.2-5.5,6.4c0.3-0.2,2.5-1.7,5.2-3.4c3.3-2.1,7.3-4.5,9-5
				c-0.7,0.4-4.6,2.3-8.6,6.2c-2.8,2.7-5.6,6.3-7.4,11c0.5-0.5,7-8.2,12.5-11c0.8-0.4,1.6-0.7,2.3-0.9c0,0-0.4,0.3-1,0.9
				c-3.2,2.9-13.4,12.7-15.4,23.7c0.6-0.8,11.1-14.4,15.9-15.5c0,0-11.3,11.7-12.9,22.3c0,0.1,0,0.2-0.1,0.3c0,0,0.1-0.1,0.2-0.3
				c1.6-2.3,10.8-15.7,16.1-16.4l-8.8,16.4l-0.1,0.3h84.8c0,0,0-0.1,0-0.3c0.1-1.4,0.8-8.6,3.7-14.3c1.7-3.4,4.2-6.3,7.7-7.2
				c0,0,13.2,1.5,11-3.7c0,0-3.3-8.6-45.4-9.8C435.8,122.8,422.8,120.9,434.5,112.8z M404.3,120.2c-1.1,1.7-2.3,4-3.4,7.1
				c-0.6,1.8-1.2,3.9-1.7,6.3c3.1-1.5,7.9-4,11.3-6.3c1.8-1.2,3.2-2.4,3.8-3.4c0,0-0.3,1.3-0.6,3.4c0,0.2-0.1,0.5-0.1,0.7
				c-0.4,2.4-0.9,5.7-1.2,8.9c2.6-0.1,8.5-1.8,10.8-3.9c-3.3,3.4-10.8,5.8-11.7,5.8h-0.1l-1,0l0.1-1c0.3-3.7,1.2-7.1,2.2-9.6
				c-5.1,3.8-13.7,7.7-14.2,7.9l-1.6,0.7l0.3-1.7c0.5-3.1,1.2-5.6,2-7.8c3.1-8.3,7.8-10.4,8.4-10.7
				C407.2,116.9,405.9,118,404.3,120.2z M404.1,152.5l-1.4,1l0-1.8c-0.5-15.1,6-19.7,6.6-20.2c-0.4,0.5-4.8,5.5-4.8,18.2v0.1
				c4.1-3.1,11.6-9.2,12.9-12.5c0,0,0,0.1,0,0.2c0,1,0.1,7,0.6,13c2.5-0.6,7.9-3.4,9.7-5.8c-2.6,4-9.3,7.7-10.3,7.9c0,0-0.1,0-0.1,0
				l-1,0.2l-0.1-1c-0.5-3.7-0.2-7.2,0.2-9.9C412.1,146.6,404.5,152.1,404.1,152.5z M452.6,127.3c2.1-0.2,4.2-0.2,6.3,0
				c1.7,0.2,3.3,0.5,4.9,0.8c8.3,1.9,14.7,6,14.7,6c-8-1.2-9.3-0.5-15.3,0.8c-0.1,0-0.3,0.1-0.4,0.1c-6.4,1.3-16.5-0.1-16.5-0.1
				c4.5-0.2,7.2-2.2,7.2-2.2c-12,1.6-15.6-1.1-15.6-1.1c6.1,1.6,9.6-1.1,9.6-1.1c-8.9,0.7-13.1-3.1-13.1-3.1s5.1,1.2,18,0
				C452.4,127.4,452.5,127.3,452.6,127.3z M430.2,125.9c-0.2,0.2-0.8,0.6-1.5,1.4c-0.5,0.5-1.1,1.2-1.7,2.1
				c-1.7,2.6-3.8,6.9-5.1,13.4c4.7-2.3,13.2-6.8,15.1-9.7c0,0-0.3,1.7-0.7,4.1c-0.4,2.4-0.9,5.6-1.2,8.9c2.5-0.1,8.4-1.7,10.7-3.8
				c-3.3,3.4-10.7,5.7-11.7,5.7H434l-1,0l0.1-1c0.3-3.7,1.2-7.1,2.2-9.6c-5.1,3.8-13.7,7.7-14.2,7.9l-1.6,0.7l0.3-1.7
				c1.7-10.3,5.7-15,8.3-17C429.2,126.5,430,126.1,430.2,125.9z M415.2,113.1c-10.1-2.7-21.2,1.5-21.7,1.7
				c3.5-5.3,18.9-8.6,18.9-8.6c-4.1-0.7-12.8,1.6-12.8,1.6c5.1-4.9,19.5-6.5,19.5-6.5c-2.5-0.7-11.1,0.6-11.1,0.6
				c2.8-3.5,18.9-5.3,18.9-5.3c-1.9-1.2-8.4-0.4-8.4-0.4c7.5-4.2,17.4-2.5,17.4-2.5c-1-2.6-5.1-3.2-5.1-3.2
				c8.1-1.3,12.3,3.4,12.3,3.4c-0.2,3.1-8.3,4.6-8.3,4.6c4.4,1,8.7-1.8,8.7-1.8c-0.7,3.8-14,8.3-14,8.3c3.2,0.4,7.4-0.7,7.4-0.7
				c-4.4,6.3-23,5.6-23,5.6c1.5,2.1,17.3,1.6,17.3,1.6S425.6,115.8,415.2,113.1z"/>
		</g>
	</g>
</g>
</svg>
