<svg width="41" height="41" viewBox="0 0 41 41" fill="none" xmlns="http://www.w3.org/2000/svg">
<g clip-path="url(#clip0_724_4551)">
<path d="M21.6011 40.6222C20.4474 40.6218 19.2956 40.5277 18.1571 40.3411C12.5883 39.4273 7.60991 36.3405 4.3153 31.7588C1.0207 27.1771 -0.320726 21.4751 0.585656 15.9051C1.09285 12.7342 2.31523 9.72033 4.16016 7.09197C6.00508 4.46362 8.42412 2.28974 11.2339 0.735102C11.708 0.470231 12.2481 0.347086 12.7902 0.380313C13.3322 0.41354 13.8532 0.60174 14.2914 0.922531C14.7392 1.22896 15.0884 1.65893 15.2963 2.16014C15.5043 2.66135 15.5621 3.2122 15.4628 3.74567L13.9399 3.62853L15.3808 3.88625C14.5679 8.19825 15.3275 12.6588 17.5219 16.4587C19.7163 20.2585 23.2 23.146 27.3411 24.5971C30.5301 25.7039 33.9609 25.9185 37.2631 25.218C37.7856 25.1154 38.3264 25.1609 38.8244 25.3492C39.3225 25.5375 39.758 25.8612 40.082 26.2838C40.406 26.7064 40.6054 27.2111 40.6579 27.741C40.7104 28.2709 40.6138 28.8049 40.3791 29.2828C38.5724 32.6987 35.8703 35.5587 32.5624 37.5562C29.2544 39.5538 25.4653 40.6136 21.6011 40.6222ZM12.4991 3.38253C10.2585 4.653 8.31033 6.38078 6.78129 8.45356C5.25225 10.5263 4.17654 12.8977 3.6241 15.4135C3.07167 17.9293 3.05487 20.5332 3.57481 23.0559C4.09474 25.5786 5.13977 27.9636 6.64194 30.056C8.4525 32.5868 10.8771 34.6156 13.6877 35.9512C16.4983 37.2869 19.6025 37.8857 22.7082 37.6912C25.814 37.4968 28.8192 36.5154 31.4412 34.8396C34.0632 33.1637 36.2158 30.8484 37.6965 28.1114C33.9286 28.8688 30.0271 28.6101 26.3922 27.3617C21.5962 25.68 17.5596 22.3386 15.0117 17.9411C12.4638 13.5435 11.5726 8.37973 12.4991 3.38253Z" fill="#1D1D1D"/>
</g>
<defs>
<clipPath id="clip0_724_4551">
<rect width="41" height="41" fill="white"/>
</clipPath>
</defs>
</svg>
