    <svg width="41" height="43" viewBox="0 0 41 43" fill="none" xmlns="http://www.w3.org/2000/svg">
    <path d="M23.2493 2.90384V3.42553C23.2493 5.43606 22.356 6.40321 20.4956 6.40321C18.6351 6.40321 17.8157 5.43606 17.8157 3.42553V2.90384C17.8157 0.967152 18.6351 0 20.4956 0C22.356 0 23.2493 0.967152 23.2493 2.90384ZM28.7592 5.28599L29.1309 4.83814C30.2481 3.19922 31.5868 2.97769 33.0018 4.01868C34.4907 5.06206 34.7146 6.47468 33.5974 8.1136L33.1495 8.48521C32.0323 10.1241 30.6935 10.3457 29.2785 9.23082C27.7897 8.18744 27.642 6.92252 28.7592 5.28599ZM11.9341 4.84052L12.2319 5.28837C13.3491 6.92729 13.199 8.1922 11.7841 9.2332C10.2952 10.3504 8.88022 10.1265 7.76299 8.48759L7.46522 8.11598C6.34799 6.47706 6.49807 5.06445 7.91306 4.02106C9.40191 2.97768 10.8169 3.35168 11.9341 4.84052ZM20.4956 9.75251C26.8226 9.75251 32.0347 14.9647 32.0347 21.3655C32.0347 27.6925 26.8226 32.8308 20.4956 32.8308C14.0924 32.8308 8.95644 27.6949 8.95644 21.3655C8.95644 14.9623 14.0924 9.75251 20.4956 9.75251ZM3.82053 13.028L4.34222 13.178C6.27891 13.7736 6.87445 14.8908 6.35276 16.6774C5.75722 18.464 4.56615 18.9857 2.70569 18.3902L2.184 18.2401C0.32354 17.6446 -0.348225 16.5273 0.173465 14.7407C0.769002 12.9541 1.96008 12.4324 3.82053 13.028ZM36.6489 13.178L37.1706 13.028C39.1073 12.4324 40.2984 12.9541 40.8177 14.7407C41.337 16.5273 40.7438 17.6446 38.8071 18.2401L38.3593 18.3902C36.4226 18.9857 35.2315 18.464 34.7122 16.6774C34.1167 14.8908 34.7861 13.7736 36.6489 13.178ZM20.4956 27.7687C23.9949 27.7687 26.8988 24.8649 26.8988 21.3655C26.8988 17.7923 23.9949 14.8884 20.4956 14.8884C16.9223 14.8884 14.0185 17.7923 14.0185 21.3655C14.0185 24.8649 16.9223 27.7687 20.4956 27.7687ZM2.18162 24.417L2.70331 24.2669C4.56376 23.6714 5.75484 24.1169 6.35037 25.9059C6.87206 27.6925 6.27653 28.8097 4.33984 29.4052L3.81815 29.5553C1.95769 30.1508 0.76662 29.7054 0.171083 27.9164C-0.350607 26.1298 0.321158 25.0126 2.18162 24.417ZM38.3617 24.2693L38.8095 24.4194C40.7462 25.0149 41.3417 26.1322 40.8201 27.9188C40.2984 29.7054 39.1073 30.1532 37.173 29.5577L36.6513 29.4076C34.7908 28.8121 34.1191 27.6948 34.7146 25.9082C35.2363 24.1216 36.4274 23.6738 38.3617 24.2693ZM7.4676 34.6174L7.76537 34.1695C8.8826 32.5306 10.2976 32.3829 11.7864 33.4239C13.2014 34.4673 13.3491 35.7322 12.2343 37.3688L11.9365 37.8166C10.8193 39.4555 9.40429 39.6032 7.91545 38.5622C6.50045 37.5188 6.35276 36.2539 7.4676 34.6174ZM33.1495 34.1695L33.5974 34.6174C34.7146 36.2563 34.4907 37.5212 33.0018 38.5622C31.5868 39.6056 30.2481 39.4555 29.1309 37.8166L28.7592 37.3688C27.642 35.7298 27.7921 34.4649 29.2809 33.4239C30.6959 32.3805 32.0323 32.5306 33.1495 34.1695ZM23.2493 39.1577V39.7533C23.2493 41.7638 22.356 42.731 20.4956 42.731C18.6351 42.731 17.8157 41.7638 17.8157 39.7533V39.1577C17.8157 37.1472 18.6351 36.1801 20.4956 36.1801C22.356 36.1801 23.2493 37.1472 23.2493 39.1577Z" fill="white"/>
    </svg>
