<svg width="45" height="45" viewBox="0 0 45 45" fill="none" xmlns="http://www.w3.org/2000/svg">
<path d="M9.59201 6.18284H43.4139L38.8123 22.2882H12.0698M41.1131 31.4913H13.5038L8.90231 1.5813H2M15.8046 40.6944C15.8046 41.9651 14.7745 42.9952 13.5038 42.9952C12.2332 42.9952 11.2031 41.9651 11.2031 40.6944C11.2031 39.4237 12.2332 38.3936 13.5038 38.3936C14.7745 38.3936 15.8046 39.4237 15.8046 40.6944ZM41.1131 40.6944C41.1131 41.9651 40.083 42.9952 38.8123 42.9952C37.5416 42.9952 36.5115 41.9651 36.5115 40.6944C36.5115 39.4237 37.5416 38.3936 38.8123 38.3936C40.083 38.3936 41.1131 39.4237 41.1131 40.6944Z" stroke="#1D1D1D" stroke-width="2.5" stroke-linecap="round" stroke-linejoin="round"/>
</svg>
