<?xml version="1.0" encoding="utf-8"?>
<!-- Generator: Adobe Illustrator 24.2.3, SVG Export Plug-In . SVG Version: 6.00 Build 0)  -->
<svg version="1.1" id="Layer_1" xmlns="http://www.w3.org/2000/svg" xmlns:xlink="http://www.w3.org/1999/xlink" x="0px" y="0px"
	 viewBox="0 0 700 700" style="enable-background:new 0 0 700 700;" xml:space="preserve">
<style type="text/css">
	.st0{fill:#F4F4F4;}
</style>
<g>
	<g>
		<path class="st0" d="M295.4,480.2v-53.4h18.7c5.5,11.9,13.7,28.3,16,34.7h0.5c-0.5-5.5-0.9-15.1-0.9-23.3v-11.4h14.2v53.4H326
			c-4.6-9.6-14.2-29.7-16.9-36.5l0,0c0.5,5,0.5,15.5,0.5,24.7v11.9H295.4z"/>
		<path class="st0" d="M367.1,462.8c0,4.1,1.4,8.2,5.9,8.2c3.7,0,4.6-1.4,5.5-3.7h15.1c-1.4,5.5-5.9,13.7-20.6,13.7
			c-15.5,0-21-10.5-21-21c0-12.3,6.4-21.5,21.5-21.5c16,0,20.6,10.5,20.6,21c0,1.4,0,2.3,0,3.7h-26.9V462.8z M378.5,455
			c0-3.7-0.9-6.9-5.5-6.9c-4.1,0-5.5,3.2-5.9,6.9H378.5z"/>
		<path class="st0" d="M412.8,439.5c2.7,15.1,3.7,23.3,4.6,28.3h0.5c0.9-5.5,1.8-11.9,5-28.3H437c3.2,16,4.1,22.8,4.6,28.3h0.5
			c0.5-4.1,1.8-12.3,5-28.3h15.1l-11.9,40.6h-16.4c-2.3-12.3-3.7-19.2-4.1-25.1l0,0c-0.5,5-1.8,13.2-4.6,25.1h-16.4l-11.4-40.6
			H412.8z"/>
		<path class="st0" d="M532.4,462.3c-1.8,11-10,18.7-24.7,18.7c-17.4,0-26-11.9-26-27.4c0-15.1,8.2-28.3,26.5-28.3
			c15.5,0,22.8,9.1,23.7,18.3h-15.5c-0.9-3.7-2.7-7.3-8.7-7.3c-7.8,0-10,7.3-10,16.4c0,8.7,2.3,16.9,10.5,16.9
			c6.4,0,7.8-4.6,8.7-7.8h15.5V462.3z"/>
		<path class="st0" d="M580.8,459.6c0,12.8-7.8,21.5-21.9,21.5c-14.6,0-21.5-9.6-21.5-21c0-12.3,7.3-21.5,21.9-21.5
			C573.1,438.6,580.8,447.3,580.8,459.6z M553,459.6c0,7.8,2.3,11,6.4,11c4.1,0,5.9-3.7,5.9-11c0-8.2-2.3-11.4-6.4-11.4
			C555.7,448.6,553,451.4,553,459.6z"/>
		<path class="st0" d="M587.7,424h15.1v10.5h-15.1V424z M587.7,439.5h15.1v40.6h-15.1V439.5z"/>
		<path class="st0" d="M611.4,450c0-3.7,0-7.3,0-10.5h14.6c0.5,0.9,0.5,3.2,0.5,4.6c1.4-2.3,5-5.5,11.4-5.5
			c8.2,0,13.2,5.5,13.2,15.5v26h-15.1v-24.7c0-4.1-0.9-5.9-4.6-5.9c-3.2,0-5,1.8-5,7.3v23.3h-15.1L611.4,450L611.4,450z"/>
	</g>
	<g>
		<path class="st0" d="M43.3,463.7c0.9,4.6,4.1,6.4,9.1,6.4c4.6,0,6.9-1.8,6.9-4.6c0-3.7-2.3-5-11-6.9c-16-3.7-18.7-9.6-18.7-16.9
			c0-9.1,6.4-16.4,21.5-16.4c15.5,0,21.9,7.8,22.4,16.4H58.4c-0.5-2.7-1.8-5.9-7.3-5.9c-3.7,0-5.9,1.4-5.9,4.1c0,2.7,1.8,4.1,10,5.9
			c16.4,4.1,19.6,10,19.6,17.8c0,10-7.8,16.9-23.3,16.9c-14.6,0-22.4-6.9-23.7-17.4h15.5V463.7z"/>
		<path class="st0" d="M94,439.5c2.7,10.5,5.5,23.3,6.4,27.9h0.5c0.9-5.5,2.7-14.2,5.9-27.9h15.1L110,477.9
			c-4.1,13.2-7.3,18.3-20.1,18.3c-0.9,0-4.1,0-6.4-0.5v-11c0.5,0,1.8,0,2.7,0c3.7,0,5.5-0.9,6.4-4.1l-14.6-41.1H94z"/>
		<path class="st0" d="M125.5,450.9c0-4.1,0-8.2,0-11.9h14.6c0,1.4,0.5,5,0.5,6.4c1.4-4.1,5.5-7.8,12.3-7.8v13.7
			c-8.7-0.5-12.3,1.4-12.3,11v16.9h-15.1V450.9z"/>
		<path class="st0" d="M158.9,424H174v10.5h-15.1V424z M158.9,439.5H174v40.6h-15.1V439.5z"/>
		<path class="st0" d="M220.1,467.8c0,4.6,0,10.5,0.5,11.9h-14.2c-0.5-0.9-0.5-2.7-0.5-3.7c-1.8,2.7-5,4.6-11.4,4.6
			c-9.1,0-14.2-5.9-14.2-12.8c0-9.6,7.8-13.7,20.1-13.7c1.4,0,3.7,0,5,0v-2.3c0-2.7-0.9-4.6-4.6-4.6c-3.2,0-4.1,1.4-4.6,4.1h-14.2
			c0.5-6.9,4.6-13.2,19.2-13.2c13.2,0,18.7,5,18.7,15.1L220.1,467.8L220.1,467.8z M205.5,461.9c-0.9,0-2.3,0-3.2,0
			c-5,0-6.9,1.8-6.9,5c0,2.3,1.4,4.1,4.6,4.1c5,0,5.9-3.7,5.9-7.8v-1.4H205.5z"/>
		<path class="st0" d="M228.8,450c0-3.7,0-7.3,0-10.5h14.6c0.5,0.9,0.5,3.2,0.5,4.6c1.4-2.3,5-5.5,11.4-5.5
			c8.2,0,13.2,5.5,13.2,15.5v26h-15.1v-24.7c0-4.1-0.9-5.9-4.6-5.9c-3.2,0-5,1.8-5,7.3v23.3h-15.1V450z"/>
	</g>
	<g>
		<g>
			<path class="st0" d="M494.5,204.3l-3.7,40.6l-3.7,40.6l-3.7,40.6l-3.7,40.6l-3.7,40.6h25.1l0,0c1.8-10,8.2-19.2,13.7-25.6
				c-2.7,2.3-5.5,5.5-8.7,8.7l-5.9,6.4l3.2-7.8c1.8-4.6,4.1-8.7,7.3-12.3c-0.9,0.5-1.4,0.9-1.8,1.4l-4.6,3.2l1.8-4.1
				c0.9-2.7,3.7-5.9,7.8-9.1l-3.2,1.4l2.7-4.6c0.5-0.5,0.9-1.4,1.4-1.8c0.5-0.5,0.9-0.9,1.4-1.4l-3.2,1.4l3.7-5
				c0.9-1.4,3.2-2.7,5-4.1l0,0l-5.5,2.3l5-5.5c0.5-0.5,0.5-0.5,0.9-0.9l5.9-64.8l3.7-40.6h81.7l-3.7,40.6h40.6l3.7-40.6l3.7-40.6
				H494.5V204.3z M516,408h4.6l5.5-10C523.3,399.8,519.7,403.4,516,408z M504.6,408h3.7c1.8-4.6,5-9.1,7.3-12.8
				C511.9,398.9,508.2,403.4,504.6,408z"/>
		</g>
		<polygon class="st0" points="82.6,245 78.5,285.6 201.4,285.6 197.7,326.7 193.6,367.4 189.9,408 26.4,408 30.6,367.4 
			152.9,367.4 156.6,326.7 34.2,326.7 37.9,285.6 41.5,245 45.2,204.3 208.7,204.3 205,245 		"/>
		<polygon class="st0" points="465.3,270.1 448,270.1 446.6,285.6 442.9,326.7 438.8,367.4 435.2,408 312.8,408 316.4,367.4 
			320.1,326.7 323.7,285.6 327.4,245 286.8,245 283.1,285.6 279.4,326.7 277.6,343.1 295,343.1 257.5,408.9 219.6,343.1 237,343.1 
			238.3,326.7 242,285.6 245.6,245 249.8,204.3 372.1,204.3 368.5,245 364.8,285.6 357.1,367.4 398.2,367.4 405.5,285.6 
			406.9,270.1 389.5,270.1 427.4,204.3 		"/>
		<g>
			<path class="st0" d="M585,335.4c0,0,4.1,5.9,9.1,0.5c0,0,0,4.1-6.4,4.6C587.7,340.4,583.1,339.5,585,335.4z"/>
			<path class="st0" d="M604.1,347.7c0,0,54.8-41.6,69.4-16c0,0-3.2-43.4-50.7-13.2l-1.4,0.9c0,0-0.9-4.6-3.2-5c0,0,0.9,1.8,0.9,2.7
				c0,0-2.3-4.6-4.6-4.6c0,0,1.4,1.8,1.4,2.7c0,0-3.7-3.7-5.9-3.7c0,0,1.4,0.9,1.4,2.3c0,0-4.6-3.2-8.2-2.7c0,0,3.2,1.4,3.2,2.3
				c0,0-8.2-2.7-11.9-2.3c0,0,8.2,1.8,9.6,3.2c-0.9-0.5-13.2-3.7-23.3-0.5c0,0,9.6,0.5,11.9,2.3c0,0-15.1-1.4-20.1,0.5
				c0,0,8.2,0,11,1.8c0,0-11.4-1.4-16.4,0.5c0,0,6.4,0,8.2,0.9c0,0-16.4-0.5-25.6,6.9c0,0,8.2-1.4,11.9,0c0,0-16.4,1.8-21,6.4
				c0.5,0,5.9-1.4,10-1.4c0,0-15.5,4.1-16,8.2c0,0,6.9-2.7,11.4-2.7c0,0-14.2,5-18.3,9.1c0.5-0.5,11-5,15.5-4.6
				c0,0-16.4,6.9-20.1,11.4c0.9-0.5,12.3-5.9,16.9-6.4c0,0-13.7,5.5-19.2,11c-0.5,0.5-0.9,0.9-0.9,1.4c0,0,0.5-0.5,0.9-0.5
				c3.2-1.8,12.8-6.9,16.9-6.9c0,0-9.6,4.1-16.9,10c-3.2,2.7-6.4,5.5-7.3,8.7c0.5-0.5,3.2-2.3,6.9-4.6c4.6-2.7,9.6-5.9,11.9-6.9
				c-0.9,0.5-6.4,3.2-11.4,8.2c-3.7,3.7-7.3,8.2-10,14.6c0.5-0.9,9.6-11,16.9-14.6c0.9-0.5,2.3-0.9,3.2-1.4c0,0-0.5,0.5-1.4,1.4
				c-4.1,3.7-17.8,16.9-20.6,31.5c0.9-0.9,14.6-19.2,21-20.6c0,0-15.1,15.5-17.4,29.7v0.5c0,0,0,0,0.5-0.5
				c2.3-3.2,14.6-21,21.5-21.9L522.9,408v0.5h113.3c0,0,0,0,0-0.5c0-1.8,0.9-11.4,5-19.2c2.3-4.6,5.5-8.7,10.5-9.6
				c0,0,17.8,1.8,14.6-5c0,0-4.6-11.4-60.7-13.2C605.5,361,588.2,358.7,604.1,347.7z M563.5,357.8c-1.4,2.3-3.2,5.5-4.6,9.6
				c-0.9,2.3-1.8,5-2.3,8.2c4.1-1.8,10.5-5.5,15.1-8.2c2.3-1.8,4.1-3.2,5-4.6c0,0-0.5,1.8-0.9,4.6c0,0.5,0,0.5,0,0.9
				c-0.5,3.2-1.4,7.8-1.8,11.9c3.7,0,11.4-2.3,14.6-5c-4.6,4.6-14.6,7.8-15.5,7.8l0,0h-1.4v-1.4c0.5-5,1.8-9.6,2.7-12.8
				c-6.9,5-18.3,10.5-18.7,10.5l-2.3,0.9l0.5-2.3c0.9-4.1,1.8-7.3,2.7-10.5c4.1-11,10.5-13.7,11.4-14.2
				C567.6,353.2,565.8,354.6,563.5,357.8z M563.5,400.7l-1.8,1.4v-2.3c-0.5-20.1,8.2-26.5,8.7-26.9c-0.5,0.5-6.4,7.3-6.4,24.2l0,0
				c5.5-4.1,15.5-12.3,17.4-16.9l0,0c0,1.4,0,9.6,0.9,17.4c3.2-0.9,10.5-4.6,13.2-7.8c-3.7,5.5-12.3,10.5-13.7,10.5l0,0l-1.4,0.5
				v-1.4c-0.5-5-0.5-9.6,0.5-13.2C574,392.9,564,400.2,563.5,400.7z M628.3,366.9c2.7-0.5,5.5-0.5,8.2,0c2.3,0.5,4.6,0.5,6.4,0.9
				c11,2.7,19.6,7.8,19.6,7.8c-10.5-1.8-12.3-0.5-20.6,0.9h-0.5c-8.7,1.8-21.9,0-21.9,0c5.9-0.5,9.6-3.2,9.6-3.2
				c-16,2.3-21-1.4-21-1.4c8.2,2.3,12.8-1.4,12.8-1.4c-11.9,0.9-17.4-4.1-17.4-4.1S610.5,368.7,628.3,366.9
				C627.9,367.4,627.9,366.9,628.3,366.9z M598.2,365.1c-0.5,0-0.9,0.9-1.8,1.8c-0.5,0.9-1.4,1.8-2.3,2.7c-2.3,3.7-5,9.1-6.9,17.8
				c6.4-3.2,17.8-9.1,20.1-12.8c0,0-0.5,2.3-0.9,5.5c-0.5,3.2-1.4,7.8-1.8,11.9c3.2,0,11.4-2.3,14.2-5c-4.6,4.6-14.2,7.8-15.5,7.8
				l0,0h-1.4v-1.4c0.5-5,1.8-9.6,2.7-12.8c-6.9,5-18.3,10.5-18.7,10.5l-2.3,0.9l0.5-2.3c2.3-13.7,7.8-20.1,11-22.8
				C596.8,366,597.7,365.5,598.2,365.1z M578.1,348.2c-13.7-3.7-28.3,1.8-29.2,2.3c4.6-6.9,25.1-11.4,25.1-11.4
				c-5.5-0.9-16.9,2.3-16.9,2.3c6.9-6.4,26-8.7,26-8.7c-3.2-0.9-15.1,0.9-15.1,0.9c3.7-4.6,25.1-7.3,25.1-7.3
				c-2.3-1.4-11.4-0.5-11.4-0.5c10-5.5,23.3-3.2,23.3-3.2c-1.4-3.7-6.9-4.1-6.9-4.1c11-1.8,16.4,4.6,16.4,4.6
				c-0.5,4.1-11,6.4-11,6.4c5.9,1.4,11.4-2.3,11.4-2.3c-0.9,5-18.7,11-18.7,11c4.1,0.5,10-0.9,10-0.9c-5.9,8.2-30.6,7.3-30.6,7.3
				c1.8,2.7,23.3,2.3,23.3,2.3S591.8,351.8,578.1,348.2z"/>
		</g>
	</g>
</g>
</svg>
